# xmcd
#
# Track frame offsets: 
#        150
#        15092
#        34272
#        49544
#        67378
#        82756
#        99885
#        114824
#        130673
#        145450
#        161289
#        175854
#        191744
#        211371
#        230719
#        245793
#        263863
#        281452
#        299277
#        315192
#
# Disc length: 4431 seconds
#
# Revision: 1
# Processed by: cddbd v1.5.2PL0 Copyright (c) Steve Scherf et al.
# Submitted via: ExactAudioCopy v0.99pb4
#
DISCID=10114d14
DTITLE=Michael Wendler - Nur Das Beste! CD3
DYEAR=2007
DGENRE=Discofox
TTITLE0=Nicht mehr in diesem Leben
TTITLE1=Oh lieber Gott
TTITLE2=Männer lügen nie
TTITLE3=Die Geier kreisen schon
TTITLE4=Halt dich fest
TTITLE5=Tagebuch (Disco Fox Mix 2007)
TTITLE6=Du bist nicht normal
TTITLE7=Ausser Kontrolle
TTITLE8=Ich nehm die Hütte auseinander
TTITLE9=Tu me fascinas
TTITLE10=Fass ohne Boden
TTITLE11=Suche... treuen Löwen
TTITLE12=Das sind alles Zeichen
TTITLE13=Es ist nicht alles Gold 
TTITLE14=Frauen können Luder sein
TTITLE15=Unsterblich
TTITLE16=Vollidiot
TTITLE17=Schau nicht auf mich herab
TTITLE18=Das schreit doch zum Himmel
TTITLE19=Sie liebt den DJ (Karaoke)
EXTD=
EXTT0=
EXTT1=
EXTT2=
EXTT3=
EXTT4=
EXTT5=
EXTT6=
EXTT7=
EXTT8=
EXTT9=
EXTT10=
EXTT11=
EXTT12=
EXTT13=
EXTT14=
EXTT15=
EXTT16=
EXTT17=
EXTT18=
EXTT19=
PLAYORDER=
